<svg width="30" height="30" xmlns="http://www.w3.org/2000/svg">

 <g>
  <title>background</title>
  <rect fill="none" id="canvas_background" height="32" width="32" y="-1" x="-1"/>
 </g>
 <g>
  <title>Layer 1</title>
  <g id="svg_4">
   <rect y="0" id="svg_2" fill="#313131" rx="6" height="30" width="30" x="0"/>
   <path id="svg_3" fill="white" d="m16.430449,16.9675c1.3614,-0.5623 2.3195,-1.903 2.3195,-3.4675c0,-2.0711 -1.679,-3.75 -3.75,-3.75c-2.0711,0 -3.75,1.6789 -3.75,3.75c0,1.5645 0.958,2.9052 2.3195,3.4675c-1.3943,0.2323 -2.6769,0.7982 -3.761,1.6127l1.3816,1.8388c1.0613,-0.7973 2.3788,-1.2694 3.81,-1.2694c1.4311,0 2.7486,0.4721 3.8099,1.2694l1.3816,-1.8388c-1.0841,-0.8145 -2.3668,-1.3805 -3.7611,-1.6127z" clip-rule="evenodd" fill-rule="evenodd"/>
  </g>
 </g>
</svg>